<mxfile host="app.diagrams.net" agent="Mozilla/5.0 (Windows NT 10.0; Win64; x64; rv:134.0) Gecko/20100101 Firefox/134.0" version="25.0.3" pages="2">
  <diagram name="der" id="RPsb3uCewAngF1J4b816">
    <mxGraphModel dx="794" dy="736" grid="1" gridSize="10" guides="1" tooltips="1" connect="1" arrows="1" fold="1" page="1" pageScale="1" pageWidth="850" pageHeight="1100" math="0" shadow="0">
      <root>
        <mxCell id="0" />
        <mxCell id="1" parent="0" />
        <mxCell id="7HzI9YjVsE-34avTuqWn-38" value="" style="rounded=0;whiteSpace=wrap;html=1;fillColor=none;" parent="1" vertex="1">
          <mxGeometry x="20" y="20" width="280" height="320" as="geometry" />
        </mxCell>
        <mxCell id="7HzI9YjVsE-34avTuqWn-14" style="edgeStyle=orthogonalEdgeStyle;rounded=0;orthogonalLoop=1;jettySize=auto;html=1;entryX=0.5;entryY=0;entryDx=0;entryDy=0;endArrow=none;endFill=0;" parent="1" edge="1">
          <mxGeometry relative="1" as="geometry">
            <mxPoint x="180" y="80" as="sourcePoint" />
            <mxPoint x="240" y="160" as="targetPoint" />
            <Array as="points">
              <mxPoint x="180" y="120" />
              <mxPoint x="240" y="120" />
            </Array>
          </mxGeometry>
        </mxCell>
        <mxCell id="7HzI9YjVsE-34avTuqWn-15" style="edgeStyle=orthogonalEdgeStyle;rounded=0;orthogonalLoop=1;jettySize=auto;html=1;entryX=0.5;entryY=1;entryDx=0;entryDy=0;endArrow=none;endFill=0;" parent="1" edge="1">
          <mxGeometry relative="1" as="geometry">
            <mxPoint x="180" y="279.9999999999999" as="sourcePoint" />
            <mxPoint x="240" y="200" as="targetPoint" />
            <Array as="points">
              <mxPoint x="180" y="240" />
              <mxPoint x="240" y="240" />
            </Array>
          </mxGeometry>
        </mxCell>
        <mxCell id="7HzI9YjVsE-34avTuqWn-6" style="edgeStyle=orthogonalEdgeStyle;rounded=0;orthogonalLoop=1;jettySize=auto;html=1;entryX=1;entryY=0;entryDx=0;entryDy=0;endArrow=none;endFill=0;" parent="1" target="7HzI9YjVsE-34avTuqWn-8" edge="1">
          <mxGeometry relative="1" as="geometry">
            <mxPoint x="80" y="160" as="sourcePoint" />
            <mxPoint x="160" y="80" as="targetPoint" />
            <Array as="points">
              <mxPoint x="80" y="120" />
              <mxPoint x="140" y="120" />
            </Array>
          </mxGeometry>
        </mxCell>
        <mxCell id="7HzI9YjVsE-34avTuqWn-7" style="edgeStyle=orthogonalEdgeStyle;rounded=0;orthogonalLoop=1;jettySize=auto;html=1;entryX=1;entryY=1;entryDx=0;entryDy=0;endArrow=none;endFill=0;" parent="1" target="7HzI9YjVsE-34avTuqWn-9" edge="1">
          <mxGeometry relative="1" as="geometry">
            <mxPoint x="80" y="200" as="sourcePoint" />
            <mxPoint x="160" y="279.9999999999999" as="targetPoint" />
            <Array as="points">
              <mxPoint x="80" y="240" />
              <mxPoint x="140" y="240" />
            </Array>
          </mxGeometry>
        </mxCell>
        <mxCell id="7HzI9YjVsE-34avTuqWn-8" value="(1, 1)" style="text;html=1;align=center;verticalAlign=middle;whiteSpace=wrap;rounded=0;" parent="1" vertex="1">
          <mxGeometry x="100" y="80" width="40" height="20" as="geometry" />
        </mxCell>
        <mxCell id="7HzI9YjVsE-34avTuqWn-9" value="(1, 1)" style="text;html=1;align=center;verticalAlign=middle;whiteSpace=wrap;rounded=0;" parent="1" vertex="1">
          <mxGeometry x="100" y="260" width="40" height="20" as="geometry" />
        </mxCell>
        <mxCell id="7HzI9YjVsE-34avTuqWn-10" value="(1, 1)" style="text;html=1;align=center;verticalAlign=middle;whiteSpace=wrap;rounded=0;" parent="1" vertex="1">
          <mxGeometry x="180" y="80" width="40" height="20" as="geometry" />
        </mxCell>
        <mxCell id="7HzI9YjVsE-34avTuqWn-13" value="(0, n)" style="text;html=1;align=center;verticalAlign=middle;whiteSpace=wrap;rounded=0;" parent="1" vertex="1">
          <mxGeometry x="40" y="200" width="40" height="20" as="geometry" />
        </mxCell>
        <mxCell id="7HzI9YjVsE-34avTuqWn-16" value="(0, n)" style="text;html=1;align=center;verticalAlign=middle;whiteSpace=wrap;rounded=0;" parent="1" vertex="1">
          <mxGeometry x="40" y="140" width="40" height="20" as="geometry" />
        </mxCell>
        <mxCell id="7HzI9YjVsE-34avTuqWn-18" value="(0, n)" style="text;html=1;align=center;verticalAlign=middle;whiteSpace=wrap;rounded=0;" parent="1" vertex="1">
          <mxGeometry x="240" y="140" width="40" height="20" as="geometry" />
        </mxCell>
        <mxCell id="7HzI9YjVsE-34avTuqWn-19" value="(0, n)" style="text;html=1;align=center;verticalAlign=middle;whiteSpace=wrap;rounded=0;" parent="1" vertex="1">
          <mxGeometry x="240" y="200" width="40" height="20" as="geometry" />
        </mxCell>
        <mxCell id="7HzI9YjVsE-34avTuqWn-20" value="(1, 1)" style="text;html=1;align=center;verticalAlign=middle;whiteSpace=wrap;rounded=0;" parent="1" vertex="1">
          <mxGeometry x="180" y="260" width="40" height="20" as="geometry" />
        </mxCell>
        <mxCell id="7HzI9YjVsE-34avTuqWn-30" value="Contrato" style="shape=associativeEntity;whiteSpace=wrap;html=1;align=center;" parent="1" vertex="1">
          <mxGeometry x="200" y="160" width="80" height="40" as="geometry" />
        </mxCell>
        <mxCell id="7HzI9YjVsE-34avTuqWn-31" value="Vínculo" style="shape=associativeEntity;whiteSpace=wrap;html=1;align=center;" parent="1" vertex="1">
          <mxGeometry x="40" y="160" width="80" height="40" as="geometry" />
        </mxCell>
        <mxCell id="7HzI9YjVsE-34avTuqWn-32" value="Paciente" style="whiteSpace=wrap;html=1;align=center;" parent="1" vertex="1">
          <mxGeometry x="120" y="40" width="80" height="40" as="geometry" />
        </mxCell>
        <mxCell id="7HzI9YjVsE-34avTuqWn-33" value="Representante" style="whiteSpace=wrap;html=1;align=center;" parent="1" vertex="1">
          <mxGeometry x="120" y="280" width="80" height="40" as="geometry" />
        </mxCell>
        <mxCell id="7HzI9YjVsE-34avTuqWn-44" value="Relações de Paciente" style="text;html=1;align=center;verticalAlign=middle;whiteSpace=wrap;rounded=0;fontStyle=1" parent="1" vertex="1">
          <mxGeometry x="80" y="340" width="160" height="20" as="geometry" />
        </mxCell>
      </root>
    </mxGraphModel>
  </diagram>
  <diagram id="ucrnLsPGi6ZKWgloeUfR" name="arquitetura">
    <mxGraphModel dx="548" dy="508" grid="1" gridSize="10" guides="1" tooltips="1" connect="1" arrows="1" fold="1" page="1" pageScale="1" pageWidth="850" pageHeight="1100" math="0" shadow="0">
      <root>
        <mxCell id="0" />
        <mxCell id="1" parent="0" />
        <mxCell id="Xqw7JtyRarajCgAl0Hda-1" value="" style="rounded=0;whiteSpace=wrap;html=1;fillColor=none;" parent="1" vertex="1">
          <mxGeometry x="20" y="20" width="600" height="160" as="geometry" />
        </mxCell>
        <mxCell id="Xqw7JtyRarajCgAl0Hda-16" value="&lt;b&gt;Arquitetura do ecossistema Nexus&lt;/b&gt;" style="text;html=1;align=center;verticalAlign=middle;whiteSpace=wrap;rounded=0;" parent="1" vertex="1">
          <mxGeometry x="20" y="180" width="600" height="20" as="geometry" />
        </mxCell>
        <mxCell id="IeG7cDvATM1DvyTgtlep-1" value="" style="rounded=0;whiteSpace=wrap;html=1;dashed=1;" vertex="1" parent="1">
          <mxGeometry x="280" y="40" width="200" height="120" as="geometry" />
        </mxCell>
        <mxCell id="Xqw7JtyRarajCgAl0Hda-3" value="API" style="rounded=0;whiteSpace=wrap;html=1;" parent="1" vertex="1">
          <mxGeometry x="290" y="70" width="80" height="80" as="geometry" />
        </mxCell>
        <mxCell id="Xqw7JtyRarajCgAl0Hda-6" value="Back-end" style="rounded=0;whiteSpace=wrap;html=1;" parent="1" vertex="1">
          <mxGeometry x="390" y="70" width="80" height="80" as="geometry" />
        </mxCell>
        <mxCell id="IeG7cDvATM1DvyTgtlep-2" value="NexusCore" style="text;html=1;align=center;verticalAlign=middle;whiteSpace=wrap;rounded=0;fontStyle=0;dashed=1;" vertex="1" parent="1">
          <mxGeometry x="280" y="40" width="200" height="30" as="geometry" />
        </mxCell>
        <mxCell id="IeG7cDvATM1DvyTgtlep-8" value="" style="endArrow=none;html=1;rounded=0;exitX=0.002;exitY=0.583;exitDx=0;exitDy=0;entryX=1;entryY=0.5;entryDx=0;entryDy=0;exitPerimeter=0;" edge="1" parent="1" source="IeG7cDvATM1DvyTgtlep-17" target="Xqw7JtyRarajCgAl0Hda-6">
          <mxGeometry width="50" height="50" relative="1" as="geometry">
            <mxPoint x="430" y="140" as="sourcePoint" />
            <mxPoint x="480" y="90" as="targetPoint" />
          </mxGeometry>
        </mxCell>
        <mxCell id="IeG7cDvATM1DvyTgtlep-10" value="" style="endArrow=none;html=1;rounded=0;exitX=1;exitY=0.5;exitDx=0;exitDy=0;entryX=0;entryY=0.5;entryDx=0;entryDy=0;" edge="1" parent="1" source="Xqw7JtyRarajCgAl0Hda-3" target="Xqw7JtyRarajCgAl0Hda-6">
          <mxGeometry width="50" height="50" relative="1" as="geometry">
            <mxPoint x="370" y="120" as="sourcePoint" />
            <mxPoint x="420" y="70" as="targetPoint" />
          </mxGeometry>
        </mxCell>
        <mxCell id="IeG7cDvATM1DvyTgtlep-17" value="Banco de dados" style="shape=cylinder3;whiteSpace=wrap;html=1;boundedLbl=1;backgroundOutline=1;size=15;" vertex="1" parent="1">
          <mxGeometry x="520" y="40" width="80" height="120" as="geometry" />
        </mxCell>
        <mxCell id="IeG7cDvATM1DvyTgtlep-22" value="&lt;div&gt;Usuário&lt;/div&gt;" style="shape=umlActor;verticalLabelPosition=bottom;verticalAlign=top;html=1;outlineConnect=0;" vertex="1" parent="1">
          <mxGeometry x="40" y="60" width="40" height="80" as="geometry" />
        </mxCell>
        <mxCell id="IeG7cDvATM1DvyTgtlep-23" value="" style="rounded=0;whiteSpace=wrap;html=1;dashed=1;" vertex="1" parent="1">
          <mxGeometry x="120" y="40" width="120" height="120" as="geometry" />
        </mxCell>
        <mxCell id="Xqw7JtyRarajCgAl0Hda-10" value="Módulo A" style="rounded=0;whiteSpace=wrap;html=1;" parent="1" vertex="1">
          <mxGeometry x="130" y="70" width="100" height="20" as="geometry" />
        </mxCell>
        <mxCell id="IeG7cDvATM1DvyTgtlep-24" value="NexusGate" style="text;html=1;align=center;verticalAlign=middle;whiteSpace=wrap;rounded=0;" vertex="1" parent="1">
          <mxGeometry x="120" y="40" width="120" height="30" as="geometry" />
        </mxCell>
        <mxCell id="IeG7cDvATM1DvyTgtlep-25" value="Módulo B" style="rounded=0;whiteSpace=wrap;html=1;" vertex="1" parent="1">
          <mxGeometry x="130" y="100" width="100" height="20" as="geometry" />
        </mxCell>
        <mxCell id="IeG7cDvATM1DvyTgtlep-26" value="Módulo Z" style="rounded=0;whiteSpace=wrap;html=1;" vertex="1" parent="1">
          <mxGeometry x="130" y="130" width="100" height="20" as="geometry" />
        </mxCell>
        <mxCell id="IeG7cDvATM1DvyTgtlep-27" value="..." style="text;html=1;align=center;verticalAlign=bottom;whiteSpace=wrap;rounded=0;" vertex="1" parent="1">
          <mxGeometry x="130" y="120" width="100" height="10" as="geometry" />
        </mxCell>
        <mxCell id="IeG7cDvATM1DvyTgtlep-28" value="" style="endArrow=none;html=1;rounded=0;exitX=0;exitY=0.5;exitDx=0;exitDy=0;entryX=0.5;entryY=0.5;entryDx=0;entryDy=0;entryPerimeter=0;" edge="1" parent="1" source="Xqw7JtyRarajCgAl0Hda-10" target="IeG7cDvATM1DvyTgtlep-22">
          <mxGeometry width="50" height="50" relative="1" as="geometry">
            <mxPoint x="150" y="110" as="sourcePoint" />
            <mxPoint x="200" y="60" as="targetPoint" />
          </mxGeometry>
        </mxCell>
        <mxCell id="IeG7cDvATM1DvyTgtlep-29" value="" style="endArrow=none;html=1;rounded=0;exitX=0;exitY=0.5;exitDx=0;exitDy=0;entryX=0.5;entryY=0.5;entryDx=0;entryDy=0;entryPerimeter=0;" edge="1" parent="1" source="IeG7cDvATM1DvyTgtlep-25" target="IeG7cDvATM1DvyTgtlep-22">
          <mxGeometry width="50" height="50" relative="1" as="geometry">
            <mxPoint x="100" y="130" as="sourcePoint" />
            <mxPoint x="150" y="80" as="targetPoint" />
          </mxGeometry>
        </mxCell>
        <mxCell id="IeG7cDvATM1DvyTgtlep-30" value="" style="endArrow=none;html=1;rounded=0;exitX=0.5;exitY=0.5;exitDx=0;exitDy=0;exitPerimeter=0;entryX=0;entryY=0.5;entryDx=0;entryDy=0;" edge="1" parent="1" source="IeG7cDvATM1DvyTgtlep-22" target="IeG7cDvATM1DvyTgtlep-26">
          <mxGeometry width="50" height="50" relative="1" as="geometry">
            <mxPoint x="100" y="140" as="sourcePoint" />
            <mxPoint x="150" y="90" as="targetPoint" />
          </mxGeometry>
        </mxCell>
        <mxCell id="IeG7cDvATM1DvyTgtlep-31" value="" style="endArrow=none;html=1;rounded=0;entryX=0;entryY=0.5;entryDx=0;entryDy=0;" edge="1" parent="1" target="Xqw7JtyRarajCgAl0Hda-3">
          <mxGeometry width="50" height="50" relative="1" as="geometry">
            <mxPoint x="230" y="80" as="sourcePoint" />
            <mxPoint x="280" y="30" as="targetPoint" />
          </mxGeometry>
        </mxCell>
        <mxCell id="IeG7cDvATM1DvyTgtlep-32" value="" style="endArrow=none;html=1;rounded=0;exitX=1;exitY=0.5;exitDx=0;exitDy=0;" edge="1" parent="1" source="IeG7cDvATM1DvyTgtlep-25">
          <mxGeometry width="50" height="50" relative="1" as="geometry">
            <mxPoint x="230" y="80" as="sourcePoint" />
            <mxPoint x="290" y="110" as="targetPoint" />
          </mxGeometry>
        </mxCell>
        <mxCell id="IeG7cDvATM1DvyTgtlep-33" value="" style="endArrow=none;html=1;rounded=0;exitX=1;exitY=0.5;exitDx=0;exitDy=0;entryX=0;entryY=0.5;entryDx=0;entryDy=0;" edge="1" parent="1" source="IeG7cDvATM1DvyTgtlep-26" target="Xqw7JtyRarajCgAl0Hda-3">
          <mxGeometry width="50" height="50" relative="1" as="geometry">
            <mxPoint x="230" y="120" as="sourcePoint" />
            <mxPoint x="280" y="70" as="targetPoint" />
          </mxGeometry>
        </mxCell>
      </root>
    </mxGraphModel>
  </diagram>
</mxfile>
